<?xml version="1.0" encoding="utf-8"?>
<!-- Generator: Adobe Illustrator 25.2.2, SVG Export Plug-In . SVG Version: 6.00 Build 0)  -->
<svg version="1.1" id="Layer_1" xmlns="http://www.w3.org/2000/svg" xmlns:xlink="http://www.w3.org/1999/xlink" x="0px" y="0px"
	 viewBox="0 0 2603.75 854.46" style="enable-background:new 0 0 2603.75 854.46;" xml:space="preserve">
<style type="text/css">
	.st0{fill:#FFFFFF;}
</style>
<g>
	<path class="st0" d="M761.96,162.39l83.68-117.13l-104.28,93.09C663.57,54.29,552.35,1.62,428.79,1.62
		C193.62,1.62,3,192.26,3,427.44c0,235.17,190.62,425.82,425.79,425.82c235.17,0,425.84-190.64,425.84-425.82
		C854.64,327.2,819.92,235.13,761.96,162.39z M725.09,568.11c0,85.95-69.66,155.62-155.62,155.62H288.13
		c-85.94,0-155.62-69.68-155.62-155.62V286.78c0-85.97,69.69-155.63,155.62-155.63h281.34c47.5,0,89.95,21.34,118.5,54.88
		L427.14,418.86L250.48,298.74l127.89,246.29c0.8,1.35,1.95,2.55,2.88,3.86c0.5,0.68,0.97,1.34,1.51,2.01
		c1.26,1.69,2.3,3.48,3.78,5.06c1.22,1.32,2.68,2.31,4.02,3.51c0.02,0.05,0.06,0.08,0.06,0.08c0.08,0.07,0.13,0.09,0.15,0.13
		c16.26,14.6,38.05,19.55,58.22,14.55c0.19-0.04,0.39-0.09,0.59-0.15c3.64-0.92,7.17-2.18,10.64-3.78c0.55-0.24,1.1-0.52,1.62-0.77
		c3.05-1.5,5.96-3.22,8.79-5.24c0.89-0.61,1.72-1.29,2.6-1.97c1.41-1.1,2.91-1.97,4.23-3.22c1.02-0.94,1.75-2.05,2.68-3.04
		c0.44-0.46,0.95-0.79,1.39-1.25l1.41-1.92c1.8-2.18,3.46-4.42,4.94-6.78l226.21-316.65c7.04,17.76,11.03,37.06,11.03,57.32V568.11z
		"/>
	<g>
		<g id="Logotype_3_">
			<path class="st0" d="M1412.55,732.66c-194.22,0-324.73-123.04-324.73-306.16c0-180.27,133.54-306.16,324.73-306.16
				c126.08,0,191.3,48.18,207.88,62.5l-39,100.36c-25.1-20.69-86.02-56.98-160.57-56.98c-119.55,0-199.89,79.42-199.89,197.61
				c0,115.83,82.19,196.73,199.89,196.73c84.98,0,139.49-33.45,168.36-58.5l42.07,94.29C1577.55,707,1503.99,732.66,1412.55,732.66z
				"/>
			<rect x="1690.82" y="129.21" class="st0" width="129.45" height="592.82"/>
			<path class="st0" d="M1917.63,722.03V303.62h129.47v418.41H1917.63z M1982.35,235.09c-45.48,0-74.87-25.3-74.87-64.44
				c0-38.56,30.09-64.46,74.87-64.46c44.77,0,74.87,25.9,74.87,64.46C2057.22,209.79,2027.83,235.09,1982.35,235.09z"/>
			<path class="st0" d="M2358.53,731.76c-145.69,0-243.58-87.45-243.58-217.62c0-130.68,97.89-218.5,243.58-218.5
				c145.15,0,242.67,87.82,242.67,218.5C2601.19,644.32,2503.68,731.76,2358.53,731.76z M2358.53,389.15
				c-67.18,0-112.3,49.17-112.3,122.36c0,73.17,45.13,122.36,112.3,122.36c67.18,0,112.3-49.18,112.3-122.36
				C2470.83,438.31,2425.7,389.15,2358.53,389.15z"/>
		</g>
	</g>
</g>
</svg>
